simulation
nRows=56
nColumns=15
endheader
time  TH_x TH_y TH_z SC_y  SC_z  SC_x  AC_y  AC_z  AC_x  GH_y  GH_z  GH_yy  EL_x  PS_y
0.000000  0.000000  0.000000  0.000000  -40.123149  6.879433  5.900316  43.531469  4.053955  -1.650839  19.098666  0.471050  4.010017  22.128616  123.464574
0.029192  0.000000  0.000000  0.000000  -39.962827  6.823421  5.871872  44.035284  3.918648  -1.323070  15.400744  0.523723  8.361281  22.582676  123.160706
0.058384  0.000000  0.000000  0.000000  -39.863150  6.757779  5.798999  44.211660  3.900200  -1.217162  14.245037  0.434984  10.129779  22.789641  123.061876
0.087576  0.000000  0.000000  0.000000  -39.818549  6.686270  5.701504  44.127784  3.961044  -1.283158  15.012827  0.267630  9.916192  22.797538  123.116729
0.116768  0.000000  0.000000  0.000000  -39.823452  6.612655  5.605444  43.851125  4.060248  -1.473773  17.085394  0.084460  8.321196  22.654394  123.273914
0.145960  0.000000  0.000000  0.000000  -39.872290  6.540696  5.524695  43.448629  4.166044  -1.732773  19.844020  -0.051731  5.945472  22.408237  123.482078
0.175152  0.000000  0.000000  0.000000  -39.959491  6.474157  5.484996  42.987977  4.238811  -2.013370  22.669985  -0.078145  3.389698  22.107095  123.689868
0.204343  0.000000  0.000000  0.000000  -40.079485  6.416798  5.503148  42.536473  4.245140  -2.263610  24.944570  0.068015  1.254553  21.798995  123.845932
0.233535  0.000000  0.000000  0.000000  -40.226701  6.372383  5.602950  42.161760  4.146556  -2.437851  26.049057  0.449547  0.140714  21.531965  123.898917
0.262727  0.000000  0.000000  0.000000  -40.395569  6.344672  5.804238  41.930974  3.906610  -2.488021  25.364727  1.129248  0.648862  21.354032  123.797470
0.291919  0.000000  0.000000  0.000000  -40.580518  6.337430  6.141030  41.911267  3.478214  -2.375790  22.272861  2.169914  3.379674  21.313224  123.490238
0.321111  0.000000  0.000000  0.000000  -40.776325  6.354430  6.624023  42.162128  2.831179  -2.048459  16.218771  3.628264  8.872179  21.453836  122.931362
0.350303  0.000000  0.000000  0.000000  -40.983435  6.399685  7.257867  42.655108  1.987791  -1.539757  7.690558  5.462027  16.661394  21.759395  122.164453
0.379495  0.000000  0.000000  0.000000  -41.206901  6.477392  8.003637  43.290047  1.040853  -0.927774  -1.975293  7.548397  25.465503  22.163985  121.305906
0.408687  0.000000  0.000000  0.000000  -41.451911  6.591756  8.815619  43.966706  0.091298  -0.291508  -11.417667  9.762228  33.978973  22.600254  120.474233
0.437879  0.000000  0.000000  0.000000  -41.723653  6.746983  9.645197  44.587494  -0.754964  0.286373  -19.275447  11.978376  40.896272  23.000853  119.787946
0.467071  0.000000  0.000000  0.000000  -42.027234  6.947172  10.439786  45.058529  -1.387313  0.721314  -24.206250  14.073003  44.929930  23.299151  119.364027
0.496263  0.000000  0.000000  0.000000  -42.363996  7.191443  11.165024  45.338620  -1.750800  0.976105  -25.752636  15.984100  45.645859  23.462659  119.247320
0.525455  0.000000  0.000000  0.000000  -42.729963  7.471886  11.822917  45.457963  -1.879733  1.079490  -24.706648  17.736947  43.814892  23.507082  119.380813
0.554646  0.000000  0.000000  0.000000  -43.120756  7.780063  12.423882  45.451206  -1.820293  1.063541  -21.954702  19.363419  40.298864  23.451768  119.699798
0.583838  0.000000  0.000000  0.000000  -43.531997  8.107531  12.986969  45.352268  -1.625559  0.955760  -18.383210  20.895393  35.959610  23.316064  120.139569
0.613030  0.000000  0.000000  0.000000  -43.959310  8.445854  13.519850  45.194987  -1.340911  0.792365  -14.877925  22.364730  31.658330  23.119313  120.635446
0.642222  0.000000  0.000000  0.000000  -44.398858  8.788168  14.041933  45.010969  -1.012198  0.602416  -12.065698  23.798760  28.008263  22.879489  121.133228
0.671414  0.000000  0.000000  0.000000  -44.848167  9.131556  14.584607  44.826737  -0.673537  0.408824  -9.922676  25.213418  24.999419  22.611112  121.605046
0.700606  0.000000  0.000000  0.000000  -45.304970  9.473712  15.179753  44.666977  -0.356713  0.234937  -8.324391  26.622874  22.525448  22.328173  122.027105
0.729798  0.000000  0.000000  0.000000  -45.767003  9.812330  15.861500  44.554967  -0.095650  0.103142  -7.146376  28.041302  20.480000  22.044660  122.375609
0.758990  0.000000  0.000000  0.000000  -46.232001  10.145103  16.666323  44.512519  0.073517  0.034945  -6.264164  29.482872  18.756724  21.774562  122.626763
0.788182  0.000000  0.000000  0.000000  -46.698954  10.469904  17.622023  44.550834  0.125148  0.044580  -5.556297  30.953928  17.248150  21.528425  122.769782
0.817374  0.000000  0.000000  0.000000  -47.172736  10.785437  18.717004  44.637827  0.084401  0.107081  -4.915413  32.424130  15.841566  21.300653  122.854854
0.846566  0.000000  0.000000  0.000000  -47.659943  11.090649  19.927495  44.730555  -0.007538  0.185275  -4.238274  33.852403  14.422725  21.080931  122.950005
0.875758  0.000000  0.000000  0.000000  -48.167169  11.384489  21.224438  44.788317  -0.104788  0.244093  -3.421645  35.197674  12.877378  20.858941  123.123265
0.904949  0.000000  0.000000  0.000000  -48.701011  11.665904  22.574958  44.773445  -0.157396  0.249115  -2.362289  36.418865  11.091279  20.624366  123.442664
0.934141  0.000000  0.000000  0.000000  -49.267016  11.933728  23.949318  44.657684  -0.119245  0.167994  -0.973481  37.479567  8.969631  20.368485  123.966632
0.963333  0.000000  0.000000  0.000000  -49.861193  12.185751  25.329255  44.462518  0.016767  0.019887  0.681290  38.385794  6.594572  20.097122  124.666293
0.992525  0.000000  0.000000  0.000000  -50.474457  12.419206  26.731199  44.231976  0.214874  -0.166555  2.458356  39.166208  4.142685  19.823858  125.466167
1.021717  0.000000  0.000000  0.000000  -51.097680  12.631323  28.167715  44.005516  0.439634  -0.357139  4.213294  39.849684  1.791441  19.562349  126.290337
1.050909  0.000000  0.000000  0.000000  -51.721730  12.819330  29.659435  43.816843  0.647749  -0.520861  5.801683  40.465097  -0.281691  19.326251  127.062884
1.080101  0.000000  0.000000  0.000000  -52.337669  12.980642  31.232932  43.692293  0.790770  -0.630975  7.085298  41.040290  -1.906924  19.128519  127.710901
1.109293  0.000000  0.000000  0.000000  -52.940478  13.116498  32.884169  43.623885  0.856697  -0.687117  8.052231  41.582097  -3.071130  18.967853  128.222844
1.138485  0.000000  0.000000  0.000000  -53.528795  13.231700  34.580406  43.577422  0.869592  -0.716068  8.808516  42.077735  -3.907446  18.829645  128.644464
1.167677  0.000000  0.000000  0.000000  -54.101401  13.331189  36.286382  43.521706  0.857477  -0.746605  9.464698  42.513669  -4.554610  18.698772  129.023706
1.196869  0.000000  0.000000  0.000000  -54.657075  13.419905  37.953994  43.429500  0.858749  -0.800162  10.131327  42.876365  -5.151359  18.560116  129.408514
1.226061  0.000000  0.000000  0.000000  -55.194547  13.502758  39.535449  43.278499  0.913001  -0.899923  10.917852  43.152500  -5.835197  18.398717  129.846309
1.255253  0.000000  0.000000  0.000000  -55.709225  13.582509  40.993604  43.073386  1.041370  -1.051225  11.858685  43.343252  -6.659311  18.210544  130.348755
1.284444  0.000000  0.000000  0.000000  -56.191114  13.658425  42.306628  42.852625  1.232862  -1.224946  12.866338  43.473354  -7.539913  18.009320  130.869430
1.313636  0.000000  0.000000  0.000000  -56.629724  13.729457  43.475649  42.649779  1.456032  -1.401286  13.842151  43.569695  -8.380664  17.810397  131.356589
1.342828  0.000000  0.000000  0.000000  -57.014566  13.794553  44.491716  42.489680  1.684019  -1.550117  14.687467  43.659168  -9.085226  17.629125  131.758487
1.372020  0.000000  0.000000  0.000000  -57.335155  13.852663  45.368546  42.391063  1.873453  -1.656046  15.303665  43.768652  -9.557301  17.480851  132.023405
1.401212  0.000000  0.000000  0.000000  -57.585435  13.902609  46.112438  42.359139  1.995061  -1.706752  15.634133  43.912872  -9.745736  17.375003  132.130276
1.430404  0.000000  0.000000  0.000000  -57.772312  13.942844  46.725826  42.371081  2.049587  -1.715102  15.745181  44.070988  -9.731485  17.303702  132.147716
1.459596  0.000000  0.000000  0.000000  -57.905053  13.971752  47.206774  42.403557  2.046212  -1.697326  15.725482  44.215688  -9.619534  17.255919  132.160658
1.488788  0.000000  0.000000  0.000000  -57.992921  13.987717  47.546822  42.435434  1.998521  -1.665586  15.663712  44.319660  -9.514873  17.220623  132.254035
1.517980  0.000000  0.000000  0.000000  -58.045182  13.989125  47.742419  42.446991  1.916713  -1.636163  15.648543  44.355595  -9.522486  17.186787  132.512780
1.547172  0.000000  0.000000  0.000000  -58.069034  13.975346  47.785354  42.424778  1.814083  -1.620904  15.752095  44.298436  -9.726930  17.145673  133.000192
1.576364  0.000000  0.000000  0.000000  -58.060316  13.951168  47.660870  42.379126  1.706739  -1.616707  15.955500  44.135526  -10.100453  17.101155  133.660652
1.605556  0.000000  0.000000  0.000000  -58.010986  13.923230  47.357921  42.326063  1.607291  -1.618658  16.208794  43.858446  -10.576925  17.061416  134.397902
